<?xml version="1.0" encoding="utf-8"?>
<!-- Generator: Adobe Illustrator 27.2.0, SVG Export Plug-In . SVG Version: 6.00 Build 0)  -->
<svg version="1.1" id="Layer_1" xmlns="http://www.w3.org/2000/svg" xmlns:xlink="http://www.w3.org/1999/xlink" x="0px" y="0px"
	 viewBox="0 0 64 64" style="enable-background:new 0 0 64 64;" xml:space="preserve">
<g>
	<path d="M38.5,22.1c-0.3-0.6-1-0.8-1.5-0.5c-0.8,0.4-1.5,0.4-2.2,0c-0.6-0.3-1.2-0.1-1.5,0.5c-0.3,0.6-0.1,1.2,0.5,1.5
		c0.7,0.4,1.4,0.5,2.1,0.5c0.7,0,1.4-0.2,2.1-0.5C38.5,23.4,38.8,22.7,38.5,22.1z"/>
	<path d="M45.9,21.6c-0.8,0.4-1.5,0.4-2.2,0c-0.6-0.3-1.2-0.1-1.5,0.5c-0.3,0.6-0.1,1.2,0.5,1.5c0.7,0.4,1.4,0.5,2.1,0.5
		c0.7,0,1.4-0.2,2.1-0.5c0.6-0.3,0.8-1,0.5-1.5C47.1,21.6,46.5,21.4,45.9,21.6z"/>
	<path d="M43.3,28c-0.5-0.3-1.2-0.2-1.6,0.3c-0.3,0.4-0.8,0.7-1.5,0.7c-0.6,0-1.2-0.3-1.5-0.7c-0.3-0.5-1-0.7-1.6-0.3
		c-0.5,0.3-0.7,1-0.3,1.6c0.7,1.1,2,1.7,3.4,1.7c1.4,0,2.7-0.7,3.4-1.7C44,29,43.9,28.3,43.3,28z"/>
	<path d="M23.4,33.7c-1.8,0-3.5,0.7-4.7,2c-1.2-1.3-2.9-2-4.7-2c-3.6,0-6.5,2.9-6.5,6.5c0,7.7,10.2,13.4,10.6,13.7
		c0.2,0.1,0.4,0.1,0.5,0.1c0.2,0,0.4,0,0.5-0.1c0.4-0.2,10.6-5.9,10.6-13.7C29.9,36.6,27,33.7,23.4,33.7z M13.7,43.9
		c-0.2,0.1-0.4,0.2-0.7,0.2c-0.3,0-0.7-0.2-0.9-0.5c-1.1-1.4-1.6-2.8-1.6-4c0-1.1,0.9-2,2-2c0.6,0,1.1,0.5,1.1,1.1
		c0,0.5-0.4,1-0.9,1.1c0.1,0.7,0.5,1.5,1.1,2.5C14.4,42.8,14.2,43.5,13.7,43.9z"/>
	<path d="M42.4,44.9C42.4,44.9,42.4,44.9,42.4,44.9c4,1.1,9.6,1.6,14.1-1.4c0-0.2,0-0.4,0-0.6v-8.4C53.9,37.9,49.4,42.5,42.4,44.9z"
		/>
	<path d="M40.3,5c-8.9,0-16.1,7.2-16.1,16.1v10.4c4.4,0.4,7.9,4.1,7.9,8.6c1.9,1.3,4.1,2.5,6.4,3.5c10.6-2.2,16.1-10.1,17.9-13.2
		v-9.2C56.5,12.2,49.2,5,40.3,5z M51.1,27.1H50c-1.2,4.2-5.1,7.3-9.7,7.3c-4.6,0-8.5-3.1-9.7-7.3h-1.1c-1.6,0-2.8-1.2-2.8-2.8
		c0-1.5,1.2-2.8,2.8-2.8h1.1c1.2-4.1,4.9-7.2,9.4-7.3c0.1,0,0.2,0.1,0.3,0.1c0.8,0,1.5,0.7,1.5,1.5c0,0.8-0.7,1.5-1.5,1.5
		c-0.6,0-1.1,0.5-1.1,1.1c0,0.6,0.5,1.1,1.1,1.1c2.1,0,3.7-1.7,3.7-3.8c0-0.3,0-0.6-0.1-0.9c2.9,1.1,5.2,3.6,6.1,6.6h1.1
		c1.5,0,2.8,1.2,2.8,2.8C53.9,25.8,52.6,27.1,51.1,27.1z"/>
	<path d="M31.9,42.6c-0.7,3.5-3,6.4-5.3,8.7c2.8,4.7,7.9,7.8,13.8,7.8c7.7,0,14.2-5.5,15.8-12.8C53.6,47.5,51,48,48.5,48
		C42.9,48,36.9,45.7,31.9,42.6z"/>
</g>
</svg>
