<?xml version="1.0" encoding="utf-8"?>
<!-- Generator: Adobe Illustrator 27.2.0, SVG Export Plug-In . SVG Version: 6.00 Build 0)  -->
<svg version="1.1" id="Beard" xmlns="http://www.w3.org/2000/svg" xmlns:xlink="http://www.w3.org/1999/xlink" x="0px" y="0px"
	 viewBox="0 0 64 64" style="enable-background:new 0 0 64 64;" xml:space="preserve">
<path d="M53,30.3v-6c0-13.2-6-14.8-7.6-15C39,4.7,33.3,5.4,28.6,6c-1.3,0.2-2.6,0.3-3.6,0.3c-4.5,0-7.3-2.7-7.3-2.7
	c-0.3-0.2-0.6-0.3-1-0.2c-0.3,0.1-0.6,0.4-0.7,0.7c-0.5,1.9-0.3,3.4,0,4.5c-2.4-1.3-3-3.4-3-3.5c-0.1-0.3-0.3-0.5-0.5-0.7
	c-0.3-0.1-0.6-0.1-0.9,0C11.1,4.7,9,6,9,12.3c0,3,1.3,6.1,4,8.4v9.6c-1.2,0.9-2,2.4-2,4c0,2.8,2.2,5,5,5h1v6c0,8.8,7.2,16,16,16
	s16-7.2,16-16v-6h1c2.8,0,5-2.2,5-5C55,32.7,54.2,31.2,53,30.3z M17,37.3h-1c-1.6,0-3-1.3-3-3s1.4-3,3-3h1V37.3z M36,51.3h-6
	c-0.5,0-1-0.5-1-1c0-0.6,0.5-1,1-1h6c0.5,0,1,0.4,1,1C37,50.9,36.5,51.3,36,51.3z M47,30.3V43c-1.6,2-3.7,3.6-6.1,4.6
	c-0.3-1.3-1.5-2.3-2.9-2.3H28c-1.4,0-2.6,1-2.9,2.3c-2.4-1.1-4.4-2.7-6.1-4.6V27.3c0-1.6,1.4-3,3-3h3c6.7,0,10.1-0.7,12.8-1.3
	c1.8-0.4,3.2-0.7,5.2-0.7c3.8,0,4,1.8,4,2V30.3z M50,37.3h-1v-6h1c1.7,0,3,1.4,3,3S51.7,37.3,50,37.3z"/>
<path d="M43,30h-6c-0.5,0-1,0.5-1,1s0.5,1,1,1h6c0.5,0,1-0.5,1-1S43.5,30,43,30z"/>
<path d="M40,34c-0.5,0-1,0.5-1,1v2c0,0.5,0.5,1,1,1s1-0.5,1-1v-2C41,34.5,40.5,34,40,34z"/>
<path d="M29,30h-6c-0.5,0-1,0.5-1,1s0.5,1,1,1h6c0.5,0,1-0.5,1-1S29.5,30,29,30z"/>
<path d="M26,34c-0.5,0-1,0.5-1,1v2c0,0.5,0.5,1,1,1s1-0.5,1-1v-2C27,34.5,26.5,34,26,34z"/>
</svg>
