<?xml version="1.0" encoding="utf-8"?>
<!-- Generator: Adobe Illustrator 27.2.0, SVG Export Plug-In . SVG Version: 6.00 Build 0)  -->
<svg version="1.1" id="Layer_1" xmlns="http://www.w3.org/2000/svg" xmlns:xlink="http://www.w3.org/1999/xlink" x="0px" y="0px"
	 viewBox="0 0 64 64" style="enable-background:new 0 0 64 64;" xml:space="preserve">
<g id="Layer_12">
	<path d="M45.9,56c-5.9-1.9-13.5-7.5-12.7-14.4c0.9-7.1,8.2-9,12.7-4.2c4.4-4.8,11.8-2.9,12.7,4.2C59.4,48.5,51.8,54.1,45.9,56z"/>
	<path d="M29.8,41.1c0.7-5.8,5-9.8,10.4-9.8c2,0,4,0.6,5.7,1.7c1.7-1.1,3.7-1.7,5.7-1.7c1.2,0,2.4,0.2,3.5,0.6v-4.7
		c0-2.4-1.2-4.7-3.2-6.1L34.4,9.3c-2.5-1.7-5.8-1.7-8.3,0L8.6,21.2c-2,1.4-3.2,3.7-3.2,6.1v21.4c0,4.1,3.3,7.4,7.3,7.4h25.5
		C33,52.5,29.1,47.1,29.8,41.1z"/>
</g>
</svg>
