<?xml version="1.0" encoding="utf-8"?>
<!-- Generator: Adobe Illustrator 27.2.0, SVG Export Plug-In . SVG Version: 6.00 Build 0)  -->
<svg version="1.1" id="Layer_1" xmlns="http://www.w3.org/2000/svg" xmlns:xlink="http://www.w3.org/1999/xlink" x="0px" y="0px"
	 viewBox="0 0 64 64" style="enable-background:new 0 0 64 64;" xml:space="preserve">
<style type="text/css">
	.st0{fill-rule:evenodd;clip-rule:evenodd;}
</style>
<g transform="translate(-336)">
	<path class="st0" d="M368,58.8c-2.7,0-4.9-2.2-4.9-4.9c0-2.1,1-4.3,2.1-6.1c0.6-0.9,1.1-1.8,1.7-2.5v0c0.7,1.7,1.9,2.9,3.1,4.1
		c1.3,1.2,2.8,2.3,2.8,4.5C372.9,56.6,370.7,58.8,368,58.8L368,58.8z M360,57c-0.4-1-0.6-2-0.6-3.1c0-2.7,1.2-5.6,2.6-8
		c2.1-3.4,4.6-6,4.6-6c0.5-0.5,1.3-0.7,2-0.4s1.1,1,1.1,1.7c0,3.5,2.2,4.8,3.8,6.4c1.6,1.6,2.9,3.3,2.9,6.2c0,1.1-0.2,2.2-0.6,3.1
		c6.6-3,11.1-9.7,11.1-17.4c0-8-4.5-12-9.2-16.4c-4-3.8-8-7.8-8-16.1c0-0.7-0.4-1.4-1.1-1.7c-0.7-0.3-1.4-0.2-2,0.3
		c0,0-4.9,4.5-8,8.8c-1.5,2.1-2.6,4.2-2.7,5.8c-0.4,3.7,1.3,6.5,3.1,8.9c0.8,1,1.6,1.9,2.2,2.9c0.5,0.7,0.9,1.3,1,2.1
		c0.1,0.6-0.7,0.7-1.4,0.5c-1.9-0.5-4.1-2.6-5.7-7.1c-0.3-0.7-1-1.2-1.7-1.2c-0.8,0-1.5,0.5-1.7,1.2c0,0-2.8,8.1-2.8,12.1
		C348.9,47.4,353.5,54,360,57L360,57z"/>
</g>
</svg>
