<?xml version="1.0" encoding="utf-8"?>
<!-- Generator: Adobe Illustrator 27.2.0, SVG Export Plug-In . SVG Version: 6.00 Build 0)  -->
<svg version="1.1" id="Layer_3" xmlns="http://www.w3.org/2000/svg" xmlns:xlink="http://www.w3.org/1999/xlink" x="0px" y="0px"
	 viewBox="0 0 64 64" style="enable-background:new 0 0 64 64;" xml:space="preserve">
<g>
	<path d="M15.8,37.5c1-6.2,3.3-12.7,8.3-17.7c2.9-2.9,6.7-4.4,10.8-4.4c3.7,0,7.2,1.3,10,3.8c0.1-0.8,0.1-1.5,0.1-2.3
		c0-6-4.9-10.9-10.9-10.9c-3.5,0-6.7,1.7-8.7,4.4c-2-2.6-5.2-4.4-8.7-4.4c-6,0-10.9,4.9-10.9,10.9C5.9,25,11,32.3,15.8,37.5z"/>
	<path d="M54.9,35.1c-2.5-2.5-6-3.5-9.2-3.1c0.1-0.5,0.1-1,0.1-1.5c0-2.9-1.1-5.6-3.2-7.7c-4.2-4.2-11.1-4.2-15.4,0
		c-10.9,10.9-6.9,31.8-6.7,32.7l0.3,1.4l1.4,0.3c0.4,0.1,4.5,0.8,9.8,0.8c7.2,0,16.7-1.4,22.9-7.6C59.2,46.3,59.2,39.4,54.9,35.1z"
		/>
</g>
</svg>
