<?xml version="1.0" encoding="utf-8"?>
<!-- Generator: Adobe Illustrator 27.2.0, SVG Export Plug-In . SVG Version: 6.00 Build 0)  -->
<svg version="1.1" id="Capa_1" xmlns="http://www.w3.org/2000/svg" xmlns:xlink="http://www.w3.org/1999/xlink" x="0px" y="0px"
	 viewBox="0 0 64 64" style="enable-background:new 0 0 64 64;" xml:space="preserve">
<g>
	<path d="M51.5,18.6h-5.3l-3-4.5c-1.1-1.7-3.1-2.7-5.1-2.7H25.9c-2,0-4,1-5.1,2.7l-3,4.5h-5.3c-3.4,0-6.1,2.7-6.1,6.1v21.6
		c0,3.4,2.7,6.1,6.1,6.1h39c3.4,0,6.1-2.7,6.1-6.1V24.8C57.6,21.4,54.9,18.6,51.5,18.6z M32,47.5c-7.6,0-13.8-6.2-13.8-13.8
		S24.4,19.9,32,19.9s13.8,6.2,13.8,13.8C45.8,41.3,39.6,47.5,32,47.5z M50.7,27.3c-0.1,0-0.1,0-0.2,0h-2.2c-1-0.1-1.8-0.9-1.7-1.9
		c0.1-0.9,0.8-1.7,1.7-1.7h2.2c1-0.1,1.8,0.7,1.9,1.7C52.4,26.4,51.7,27.2,50.7,27.3z"/>
	<path d="M32,26c-4.2,0-7.7,3.5-7.7,7.7s3.5,7.6,7.7,7.6s7.7-3.5,7.7-7.7C39.7,29.4,36.2,26,32,26z"/>
</g>
</svg>
